<?xml version="1.0" encoding="UTF-8" standalone="no"?>
<!-- Created with Inkscape (http://www.inkscape.org/) -->

<svg
   width="297mm"
   height="210mm"
   viewBox="0 0 297 210"
   version="1.1"
   id="svg5"
   inkscape:version="1.1 (c68e22c387, 2021-05-23)"
   sodipodi:docname="deliveryHiring.svg"
   xmlns:inkscape="http://www.inkscape.org/namespaces/inkscape"
   xmlns:sodipodi="http://sodipodi.sourceforge.net/DTD/sodipodi-0.dtd"
   xmlns="http://www.w3.org/2000/svg"
   xmlns:svg="http://www.w3.org/2000/svg">
  <sodipodi:namedview
     id="namedview7"
     pagecolor="#ffffff"
     bordercolor="#999999"
     borderopacity="1"
     inkscape:pageshadow="0"
     inkscape:pageopacity="0"
     inkscape:pagecheckerboard="0"
     inkscape:document-units="mm"
     showgrid="false"
     inkscape:zoom="0.98802263"
     inkscape:cx="440.27332"
     inkscape:cy="334.50651"
     inkscape:window-width="1920"
     inkscape:window-height="1017"
     inkscape:window-x="1912"
     inkscape:window-y="-8"
     inkscape:window-maximized="1"
     inkscape:current-layer="layer1" />
  <defs
     id="defs2">
    <clipPath
       id="clip0">
      <rect
         x="156"
         y="269"
         width="721"
         height="251"
         id="rect824" />
    </clipPath>
    <clipPath
       id="clip1">
      <rect
         x="156"
         y="269"
         width="100"
         height="110"
         id="rect827" />
    </clipPath>
    <clipPath
       id="clip2">
      <rect
         x="156"
         y="269"
         width="100"
         height="110"
         id="rect830" />
    </clipPath>
    <clipPath
       id="clip3">
      <rect
         x="156"
         y="269"
         width="100"
         height="110"
         id="rect833" />
    </clipPath>
  </defs>
  <g
     inkscape:label="Camada 1"
     inkscape:groupmode="layer"
     id="layer1">
    <path
       d="M 193.54949,117.09383 V 123.973"
       stroke="#000000"
       stroke-width="0.658027"
       stroke-miterlimit="8"
       fill="none"
       fill-rule="evenodd"
       id="path838" />
    <path
       d="m 196.47128,125.15648 c 0,1.53432 -1.30307,2.77813 -2.91041,2.77813 -1.60735,0 -2.91042,-1.24381 -2.91042,-2.77813 0,-1.53432 1.30307,-2.77812 2.91042,-2.77812 1.60734,0 2.91041,1.2438 2.91041,2.77812 z"
       stroke="#000000"
       stroke-width="0.658056"
       stroke-linecap="square"
       stroke-miterlimit="8"
       fill="#ffffff"
       fill-rule="evenodd"
       id="path840" />
    <path
       d="m 74.486987,121.32717 v 6.87916"
       stroke="#000000"
       stroke-width="0.658027"
       stroke-miterlimit="8"
       fill="none"
       fill-rule="evenodd"
       id="path842" />
    <path
       d="m 77.409045,128.86065 c 0,1.53432 -1.243806,2.77812 -2.778125,2.77812 -1.534319,0 -2.778125,-1.2438 -2.778125,-2.77812 0,-1.53432 1.243806,-2.77813 2.778125,-2.77813 1.534319,0 2.778125,1.24381 2.778125,2.77813 z"
       stroke="#000000"
       stroke-width="0.658056"
       stroke-linecap="square"
       stroke-miterlimit="8"
       fill="#ffffff"
       fill-rule="evenodd"
       id="path844" />
    <path
       d="m 96.32887,89.439849 h 73.28959 V 138.65235 H 96.32887 Z"
       stroke="#000000"
       stroke-width="0.789083"
       stroke-miterlimit="8"
       fill="none"
       fill-rule="evenodd"
       id="path846" />
    <text
       font-family="Arial, Arial_MSFontService, sans-serif"
       font-weight="400"
       font-size="5.55625px"
       id="text850"
       x="119.53442"
       y="113.64922"
       style="stroke-width:0.264583">Integration<tspan
   font-size="5.55625px"
   x="122.68825"
   y="120.26379"
   id="tspan848"
   style="stroke-width:0.0700043">Process</tspan></text>
    <path
       d="m 81.909078,125.55547 h 8.618802 v 0.52917 h -8.618802 z m 8.266113,-0.79375 2.116666,1.05834 -2.116666,1.05833 z"
       id="path852"
       style="stroke-width:0.264583" />
    <path
       d="m 93.814534,123.43775 h 5.820834 v 4.23333 h -5.820834 z"
       stroke="#000000"
       stroke-width="0.529167"
       stroke-linecap="square"
       stroke-miterlimit="8"
       fill="#ffffff"
       fill-rule="evenodd"
       id="path854" />
    <path
       d="m 96.457722,125.81635 v -0.26458 -0.26458 l 0.132292,0.13229 0.132291,0.13229 -0.132291,0.13229 z"
       stroke="#000000"
       stroke-width="1.05833"
       stroke-linecap="square"
       stroke-miterlimit="8"
       stroke-opacity="0.960784"
       fill="#000000"
       fill-rule="evenodd"
       fill-opacity="0.960784"
       id="path856" />
    <path
       d="m 166.57866,121.85078 h 5.55651 v 8.73125 h -5.55651 z"
       stroke="#000000"
       stroke-width="0.529167"
       stroke-linecap="square"
       stroke-miterlimit="8"
       fill="#ffffff"
       fill-rule="evenodd"
       id="path858" />
    <path
       d="m 169.21867,124.23018 v -0.1323 -0.13229 l 0.13229,0.0661 0.13229,0.0661 -0.13229,0.0661 z"
       stroke="#000000"
       stroke-width="1.05833"
       stroke-linecap="square"
       stroke-miterlimit="8"
       stroke-opacity="0.960784"
       fill="#000000"
       fill-rule="evenodd"
       fill-opacity="0.960784"
       id="path860" />
    <path
       d="m 169.48886,128.7255 v -0.26459 -0.26458 l -0.13229,0.13235 -0.1323,0.13223 0.1323,0.13238 z"
       stroke="#000000"
       stroke-width="1.05833"
       stroke-linecap="square"
       stroke-miterlimit="8"
       stroke-opacity="0.960784"
       fill="#000000"
       fill-rule="evenodd"
       fill-opacity="0.960784"
       id="path862" />
    <path
       d="m 172.13358,126.34949 h -5.55625"
       stroke="#000000"
       stroke-width="0.529167"
       stroke-miterlimit="8"
       fill="none"
       fill-rule="evenodd"
       id="path864" />
    <path
       d="m 174.24869,122.90964 10.4921,2e-5 v 0.52917 l -10.4921,-3e-5 z m 10.13934,-0.79373 2.11666,1.05834 -2.11666,1.05833 z"
       id="path866"
       style="stroke-width:0.264583" />
    <path
       d="m 92.027275,132.69923 -8.618829,-3e-5 v 0.52917 l 8.618827,2e-5 z m -8.26606,-0.79377 -2.116667,1.05832 2.116667,1.05834 z"
       id="path868"
       style="stroke-width:0.264583" />
    <path
       d="m 93.549951,130.5815 h 5.820833 v 4.23333 h -5.820833 z"
       stroke="#000000"
       stroke-width="0.529167"
       stroke-linecap="square"
       stroke-miterlimit="8"
       fill="#ffffff"
       fill-rule="evenodd"
       id="path870" />
    <path
       d="m 96.732882,132.96017 v -0.26459 -0.26458 l -0.264584,0.13235 -0.264584,0.13223 0.264584,0.13236 z"
       stroke="#000000"
       stroke-width="1.05833"
       stroke-linecap="square"
       stroke-miterlimit="8"
       stroke-opacity="0.960784"
       fill="#000000"
       fill-rule="evenodd"
       fill-opacity="0.960784"
       id="path872" />
    <path
       d="m 187.4691,129.78881 h -10.66271 v 0.52916 h 10.66271 z m -10.31002,-0.79375 -2.11667,1.05833 2.11667,1.05833 z"
       id="path874"
       style="stroke-width:0.264583" />
    <g
       clip-path="url(#clip1)"
       id="g882"
       transform="matrix(0.26458333,0,0,0.26458333,4.6507458,1.4658914)">
      <g
         clip-path="url(#clip2)"
         id="g880">
        <g
           clip-path="url(#clip3)"
           id="g878">
          <path
             d="M 60.3311,0.535497 C 56.8402,0.536561 53.0388,0.542306 49.0894,0.553157 21.8483,0.627947 20.3291,0.657152 19.6543,1.1152 19.263,1.38084 18.8142,1.96697 18.657,2.41798 18.343,3.3187 18.2411,21.5573 18.5484,21.8645 c 0.0975,0.0975 14.3439,0.1772 31.6582,0.1772 H 81.6872 L 81.612,12.0449 81.5362,2.04813 80.8096,1.42375 C 80.4098,1.08023 79.5721,0.726109 78.9479,0.636787 78.4795,0.569766 70.8043,0.531944 60.3311,0.535495 Z M 50.0191,4.98614 c 1.2559,-0.02638 2.52,0.30774 3.3947,1.01083 1.687,1.35612 2.3171,2.79481 2.3088,5.27343 -0.0093,2.9282 -0.9279,4.6307 -3.0989,5.7441 -1.2248,0.628 -3.7317,0.6608 -4.8641,0.0639 -2.254,-1.1884 -3.1676,-2.8631 -3.1676,-5.808 0,-2.45793 0.5327,-3.7713 2.0819,-5.13162 0.8418,-0.73913 2.0897,-1.12628 3.3452,-1.15264 z M 29.8564,5.02146 c 2.255,-0.00159 2.8766,0.31261 2.8766,1.45498 0,1.05803 0.0662,1.03675 -1.7287,0.56412 -1.5439,-0.40657 -2.6777,-0.14306 -2.9402,0.68409 -0.2184,0.68788 0.6074,1.57593 2.4144,2.59565 2.0186,1.1393 2.7864,2.1656 2.7864,3.7271 0,1.4974 -0.6841,2.5435 -2.0311,3.1063 -0.9859,0.4119 -3.2455,0.4462 -4.5514,0.0691 -0.7931,-0.229 -0.8643,-0.3387 -0.8643,-1.334 0,-0.9314 0.0657,-1.0569 0.4654,-0.8861 2.4907,1.064 4.4434,0.9238 4.7612,-0.3424 0.2271,-0.9042 -0.0976,-1.3667 -1.6585,-2.3619 -3.2737,-2.0873 -4.0969,-3.45063 -3.2081,-5.31446 0.6227,-1.30612 1.8506,-1.96128 3.6783,-1.96248 z m 27.6106,0.21764 2.9479,0.08986 2.9479,0.0904 0.7755,0.86851 c 1.2412,1.39024 1.0585,3.23998 -0.483,4.89423 -0.7532,0.8082 -0.8221,0.6199 1.3037,3.5697 0.8527,1.1833 1.5506,2.2305 1.5506,2.3271 0,0.0966 -0.5686,0.1734 -1.2633,0.1714 L 63.983,17.2461 62.4106,14.8437 c -1.2462,-1.9045 -1.6872,-2.3859 -2.1276,-2.323 -0.5083,0.0727 -0.562,0.2781 -0.6322,2.4066 l -0.0769,2.3272 H 58.5205 57.467 v -6.008 z M 33.763,5.28638 h 5.22 5.2194 L 44.1191,6.15074 44.0362,7.01511 41.975,7.0925 39.9138,7.1704 v 5.0423 5.0418 H 38.85 37.7862 V 12.2127 7.17144 L 35.858,7.09301 33.9298,7.01511 33.846,6.15074 Z m 33.8099,0 h 3.4574 3.4575 v 0.93085 0.93086 h -2.3937 -2.3936 v 1.45132 1.45189 l 2.0367,0.0774 c 1.7484,0.0666 2.0468,0.1478 2.1085,0.5719 0.1492,1.0275 -0.1492,1.2099 -2.1079,1.2898 l -1.9043,0.0779 -0.0784,1.6523 -0.079,1.6524 2.6055,0.0764 2.6056,0.0763 0.083,0.8644 0.0833,0.8644 H 71.3133 67.5729 V 11.2704 Z M 50.0136,6.80213 c -0.6184,0.02415 -1.2282,0.17997 -1.6551,0.45971 -2.3327,1.52837 -1.9066,7.45636 0.5979,8.31846 2.58,0.8881 4.5213,-0.9625 4.5213,-4.3099 0,-1.85442 -0.7402,-3.59311 -1.762,-4.13997 -0.458,-0.24516 -1.0841,-0.35245 -1.7021,-0.3283 z m 9.5811,0.34596 v 1.72872 1.72869 h 0.9428 c 0.6465,0 1.1481,-0.2053 1.5957,-0.65292 C 63.4388,8.64686 62.6995,7.14809 60.75,7.14809 Z M 17.924,24.1694 9.49909,35.3396 1.07416,46.5098 h 7.31435 7.31379 l 0.7086,-1.3962 c 0.8048,-1.5873 8.3386,-17.4213 9.3007,-19.548 l 0.6316,-1.3962 h -4.2096 z m 11.0486,0 -1.5511,3.258 c -0.8531,1.7917 -2.8335,5.9508 -4.4006,9.242 -1.5672,3.2912 -3.2512,6.8516 -3.7427,7.9122 l -0.8939,1.9282 h 6.9954 6.9948 l 0.6997,-2.992 c 0.3848,-1.6457 1.542,-6.5431 2.5723,-10.883 1.0304,-4.3399 1.8737,-8.0201 1.8737,-8.1782 0,-0.194 -1.3896,-0.2872 -4.2739,-0.2872 z m 22.3774,0 v 11.1702 11.1702 h 6.9149 c 5.5053,0 6.9149,-0.0704 6.9149,-0.3465 0,-0.1907 -1.0234,-4.6487 -2.2737,-9.9069 -1.2502,-5.2583 -2.4077,-10.129 -2.5723,-10.8237 l -0.2987,-1.2633 h -4.3425 z m 13.8125,0.0431 c -1.5489,-0.0036 -2.6423,0.0307 -2.6423,0.0919 0,0.0817 0.6043,2.6879 1.3434,5.7913 0.7391,3.1035 1.879,7.9168 2.5332,10.6961 0.6543,2.7792 1.2431,5.2026 1.308,5.3856 0.0901,0.2542 1.7428,0.3324 7.0412,0.3324 3.8077,0 6.9231,-0.0401 6.9231,-0.0888 0,-0.0697 -7.9574,-16.829 -10.0601,-21.1878 L 71.1601,24.3023 66.8399,24.2291 C 66.246,24.219 65.679,24.2137 65.1625,24.2125 Z m 11.1808,0.0031 c -1.5476,0.0079 -2.3869,0.0796 -2.3869,0.2088 0,0.1476 1.842,4.1301 4.0939,8.8498 2.2516,4.7199 4.5776,9.6285 5.1688,10.9085 l 1.0748,2.3271 h 7.3476 7.3476 L 98.1726,45.3795 C 97.7234,44.7577 93.9654,39.7612 89.8213,34.2758 L 82.2872,24.3023 78.1218,24.2291 C 77.4535,24.2173 76.859,24.2129 76.3433,24.2156 Z m -36.2805,0.0867 -0.7054,2.9256 c -1.2981,5.3809 -4.3135,18.078 -4.4369,18.6835 l -0.1221,0.5984 h 7.0819 7.0817 L 48.8926,35.4061 48.8234,24.3023 h -4.3801 z m -17.538,24.6001 c -5.3391,0.0072 -4.8875,0.1753 -3.5551,2.3973 0.9473,1.5798 2.7001,2.8617 4.396,3.2157 2.0427,0.4264 4.2886,-0.0566 6.3867,-1.3728 0.7292,-0.4575 2.0726,-2.4836 2.3255,-3.5078 l 0.1809,-0.7313 h -7.077 c -1.0134,0 -1.8943,-0.0022 -2.657,-0.0011 z M 5.57673,48.9035 C 0.376918,48.912 0.737149,49.05 1.59257,50.7096 c 0.46298,0.8981 1.50961,2.0239 2.76397,2.9734 0.26415,0.1997 1.04208,0.5197 1.72873,0.7103 3.8275,1.0633 8.12743,-1.2162 8.97663,-4.7585 l 0.1755,-0.7313 H 8.16048 c -0.98452,0 -1.84091,-0.0014 -2.58375,0 z m 46.03927,0 10e-4,0.5984 c 0.0011,0.6558 0.795,2.1063 1.6888,3.0843 0.5774,0.6321 2.1471,1.5353 3.3634,1.9356 1.8231,0.6 5.4316,-0.3497 7.0053,-1.8431 0.8835,-0.8385 1.7712,-2.4582 1.7712,-3.233 0,-0.5321 -0.1321,-0.5422 -6.9148,-0.5422 z m 23.7191,0 c -3.813,0 -6.9933,0.0978 -7.0673,0.2175 -0.2401,0.3888 1.0779,2.8184 1.999,3.6846 0.4933,0.4638 1.6151,1.0947 2.4928,1.4013 2.0502,0.7168 4.2167,0.55 6.1034,-0.4694 1.4516,-0.7846 2.9697,-2.6601 3.2378,-4.0008 l 0.1667,-0.8332 z m 9.4678,0 0.1825,0.7313 c 0.4877,1.9546 2.733,4.1391 4.8537,4.7224 1.7125,0.4707 2.6542,0.4713 4.238,10e-4 2.3936,-0.7109 4.2564,-2.4864 4.8761,-4.6476 l 0.2316,-0.8071 h -7.1912 z m -42.8611,5e-4 c -3.8777,0 -7.1059,0.0904 -7.1742,0.2011 -0.1663,0.2688 0.7093,2.0369 1.563,3.1561 0.7032,0.9218 2.2872,1.8843 3.7162,2.2574 1.2662,0.3309 3.7322,0.0436 4.9753,-0.5798 1.9279,-0.9665 3.1574,-2.408 3.7845,-4.4364 l 0.1857,-0.5984 z m -25.2863,3.1633 -0.5298,0.7455 c -1.0578,1.4875 -2.5805,2.6329 -4.5343,3.4095 l -1.99464,0.7929 -0.00107,21.343 v 6e-4 L 9.59463,99.7019 H 35.9207 62.2468 l 0.0452,-5.7224 c 2.7676,-2.6104 6.7859,-5.7332 6.7016,-5.9109 -0.1574,-0.3322 0.1702,-1.4362 -1.329,-0.3697 -0.2029,0.1444 -3.18,2.6572 -5.3595,4.6609 l 0.0119,-1.501 0.0021,-0.2713 c 2.0673,-1.9468 6.1788,-5.7665 6.1788,-5.8426 0,-0.2872 -0.4325,-0.5061 -0.8237,-0.4167 -0.2524,0.0577 -3.1537,2.6255 -5.342,4.6372 l 0.055,-6.9497 11.1038,-0.0697 11.1037,-0.0697 v 8.9128 8.9122 h 2.9189 2.9191 L 90.5056,79.4564 C 90.5455,68.3215 90.5364,58.6867 90.4851,58.0452 90.4045,57.0378 90.296,56.8559 89.6872,56.7096 88.2495,56.3641 86.3269,55.1923 84.9676,53.833 l -1.3992,-1.4 -1.0681,1.2494 c -0.3833,0.4479 -0.8149,0.8527 -1.2846,1.2128 -0.0013,-0.0021 -0.0024,-0.0069 -0.0037,-0.0088 -0.0697,-0.1061 -0.1692,-0.1851 -0.4987,-0.2452 l -1.0176,1.1407 c -0.0178,0.02 -0.071,0.0766 -0.0909,0.0987 -2.3104,1.1191 -5.1232,1.3598 -7.6436,0.5096 -1.5753,-0.5312 -3.5604,-1.9599 -4.3873,-3.1578 l -0.5922,-0.8574 -1.5413,1.5649 c -2.2388,2.2739 -3.4614,2.7681 -6.9101,2.7912 -2.6428,0.0176 -2.8795,-0.0271 -4.421,-0.8327 -0.9074,-0.4745 -2.1415,-1.4261 -2.787,-2.1489 l -1.1582,-1.2982 -1.2583,1.3766 c -0.8257,0.9035 -1.8319,1.6415 -2.9305,2.149 -1.4753,0.6811 -1.9726,0.7723 -4.2003,0.7723 -2.1904,0 -2.7309,-0.0955 -4.0617,-0.7189 -0.9386,-0.4399 -2.0896,-1.3013 -2.9628,-2.2175 l -1.4279,-1.4987 -0.4872,0.8245 c -0.6282,1.0633 -3.2617,2.9085 -4.8216,3.3779 -3.7264,1.1215 -8.2274,-0.2708 -10.4451,-3.2306 z m 56.9658,7.6255 c 0.8524,0.0027 1.6215,0.0101 2.4213,0.0162 -0.9115,0.975 -1.6883,1.8099 -1.7123,1.8639 -0.2343,0.5274 0.2716,1.1399 0.762,0.9228 0.0729,-0.0319 1.3588,-1.3359 2.7505,-2.7731 0.7298,0.008 1.3378,0.0194 1.9745,0.0301 -2.2,2.3954 -4.9636,5.3561 -4.9638,5.4859 0,0.3319 0.3292,0.6585 0.6654,0.6585 0.1582,0 4.3013,-4.2139 5.9492,-6.0208 -3e-4,-0.0353 -8e-4,-0.0577 -0.0011,-0.0925 1.6271,0.0383 2.7423,0.0835 2.8192,0.1308 0.2247,0.1391 0.3085,2.8511 0.3085,10.0155 v 9.8244 H 73.6016 c -6.0463,0 -11.0729,-0.0795 -11.1702,-0.1771 -0.0976,-0.0976 -0.1771,-4.459 -0.1771,-9.6923 0,-9.0465 0.0244,-9.5327 0.5047,-9.8691 0.4016,-0.2812 2.633,-0.3476 10.8623,-0.3232 z m -39.2146,0.0053 c 12.1813,0.0152 15.7962,0.0328 16.9978,0.2296 0.3208,0.0524 0.4766,0.1172 0.5689,0.1989 0.0309,0.0274 0.0567,0.0561 0.0795,0.0872 0.0918,0.1256 0.1588,0.5205 0.2112,1.2748 0.0378,0.5399 0.0673,1.2954 0.0888,2.322 0.0133,0.6221 0.0234,1.3623 0.0319,2.2035 -0.0082,-0.8402 -0.0186,-1.5825 -0.0319,-2.2035 -2.6848,2.6934 -8.5574,8.2921 -8.5577,8.4846 0,0.3875 0.4277,0.7684 0.8644,0.7684 0.2053,0 5.5856,-4.9179 7.7258,-7.0266 0.0197,2.0167 0.0284,4.6327 0.0284,8.201 0,8.8181 -0.096,13.7096 -0.2752,14.0447 -0.2681,0.5008 -0.7463,0.5144 -17.8099,0.5144 -17.0636,0 -17.5419,-0.0136 -17.8098,-0.5144 -0.0329,-0.0614 -0.0621,-0.3303 -0.0893,-0.6981 l 2.4029,-2.4107 c 2.8378,-2.8476 6.8575,-6.6821 6.7669,-6.9774 -0.1574,-0.5122 -0.3521,-0.6896 -0.7589,-0.6896 -0.2929,0 -4.5818,3.9716 -6.6251,6.0125 l -1.8773,1.8753 c 0.0128,0.4909 0.027,0.9189 0.0421,1.284 0.0147,0.354 0.0302,0.6434 0.0473,0.879 -0.017,-0.2348 -0.0326,-0.5269 -0.0473,-0.879 -0.0153,-0.3662 -0.0293,-0.7928 -0.0421,-1.284 -0.0174,-0.674 -0.033,-1.4596 -0.0457,-2.3641 l 2.5256,-2.5338 c 1.7592,-1.7654 6.8551,-6.7237 6.8551,-6.8391 0,-0.4 -0.4324,-0.842 -0.8238,-0.842 -0.305,0 -4.5587,3.9391 -6.6344,6.0125 l -1.9469,1.9449 c -0.0157,-1.8994 -0.0244,-4.105 -0.0244,-6.6864 0,-12.3904 0.0415,-13.716 0.4389,-14.0457 0.3622,-0.3008 3.4584,-0.3609 17.7242,-0.3429 z m 17.8574,1.7905 c -0.0524,-0.7543 -0.12,-1.1492 -0.2117,-1.2748 -0.0229,-0.0308 -0.0476,-0.0601 -0.079,-0.0872 -0.0947,-0.0814 -0.2481,-0.1463 -0.5689,-0.1989 l -1.3215,1.3308 c -1.2612,1.2705 -6.8894,6.6021 -6.9668,6.7585 -0.3042,0.6154 0.3521,1.3306 0.9891,1.0774 0.1809,-0.0721 6.1734,-5.6114 7.7756,-7.2205 z M 16.2685,80.8364 c 0.0064,0.7774 0.0143,1.4974 0.0234,2.1559 -0.0091,-0.6583 -0.0168,-1.379 -0.0234,-2.1559 z M 49.988,102.095 c -42.1351,0 -46.77978,0.041 -47.15654,0.418 -0.52912,0.529 -0.61071,5.666 -0.09819,6.178 h 5.3e-4 c 0.24732,0.248 11.033,0.305 47.5399,0.253 l 47.2199,-0.067 0.0758,-3.055 c 0.0657,-2.642 0.0136,-3.101 -0.3832,-3.391 -0.3655,-0.267 -9.987,-0.336 -47.1982,-0.336 z"
             stroke="#000000"
             stroke-width="1.33333"
             fill="none"
             transform="matrix(1,0,0,1.00388,156,269)"
             id="path876" />
        </g>
      </g>
    </g>
    <path
       d="m 210.64461,75.020057 13.34572,4.960144 v 2.204931 h -1.78355 v 14.317077 l 1.00255,0.003 -0.003,0.74004 -25.04335,-0.0704 0.003,-0.74002 0.56624,0.002 0.1212,-14.415422 h -1.29024 l -0.0309,-2.260838 z m -0.004,0.79507 -12.30833,4.449289 0.014,1.016027 h 1.30696 l -0.12813,15.158086 1.65182,0.005 V 81.561192 h 18.59909 v 14.934357 l 1.63887,0.005 V 81.445066 h 1.78355 v -0.963824 z m 8.34279,6.485469 h -17.0139 v 0.688683 h 17.0139 z m 0,1.428933 h -17.0139 v 0.85635 h 17.0139 z m 0,1.5966 h -17.0139 v 11.11933 l 17.0139,0.0477 z"
       stroke="#ffffff"
       stroke-width="0.440973"
       stroke-miterlimit="8"
       fill-rule="evenodd"
       id="path884" />
    <path
       d="m 207.43035,90.895059 v 2.6856 h 1.86764 v 0.003 h 3.57984 v 2.54961 0.3008 l -5.66505,0.017 v -0.0163 l -5.44748,0.0163 v -0.29996 -2.57072 h 2.74757 v -2.68487 z m -0.21757,0.19071 h -0.67707 v 0.91568 h -1.2242 v -0.91568 h -0.47894 -0.10224 v 2.49468 l 2.48245,-0.0146 z m -0.89521,0 h -0.68636 -0.10157 v 0.72486 h 0.78793 z m 6.3429,2.67071 -0.72528,0.004 v 0.81783 h -1.06461 v -0.81172 l -0.69258,0.004 v 2.48177 l 2.48247,-0.007 v -2.37852 z m -5.44769,0 -0.72527,0.004 v 0.81783 h -1.06439 v -0.81172 l -0.69279,0.004 v 2.48177 l 2.48245,-0.007 v -2.37852 z m 4.50407,0.005 -0.62861,0.004 v 0.62246 h 0.62861 v -0.51544 z m -5.4467,0 -0.62957,0.004 v 0.62246 h 0.62957 v -0.51544 z m 3.6902,0.0101 h -0.7411 v 0.77612 h -1.2242 v -0.77612 h -0.46254 -0.10216 v 2.36214 0.12655 l 2.53,-0.007 z m -0.95845,0 h -0.68636 -0.10234 v 0.58623 h 0.7887 z m -4.48903,0 h -2.42784 -0.10224 v 2.48869 l 2.53008,-0.007 z"
       fill-rule="evenodd"
       id="path886"
       style="stroke-width:0.264583" />
    <path
       d="m 204.67575,90.895059 v 5.24629 0.30115 l -2.91044,0.009 v -0.19069 h 0.0159 v -2.4852 h -0.0159 v -0.19079 h 0.0159 v -2.68872 z m -0.21575,0.191 h -0.67163 v 0.91702 h -1.21464 v -0.91702 h -0.47525 -0.10135 v 2.49836 l 2.46287,-0.0146 z m -0.88816,0 h -0.68093 -0.10077 v 0.72603 h 0.7817 z m 0.88816,2.67465 -0.71945,0.004 v 0.81902 h -1.05619 v -0.81291 l -0.68723,0.004 v 2.48542 l 2.46287,-0.007 v -2.38215 z m -0.93617,0.005 -0.62362,0.004 v 0.62349 h 0.62362 v -0.51631 z"
       fill-rule="evenodd"
       id="path888"
       style="stroke-width:0.264583" />
    <path
       d="m 210.232,90.895059 v 2.59659 0.30488 l -2.91044,0.009 v -0.19307 h 0.0159 v -2.51619 h -0.0159 v -0.19328 h 0.0159 v -0.008 h 0.21582 v 0.008 l 1.28351,-0.008 z m -0.21565,0.18615 -0.71958,0.004 v 0.82926 h -1.05624 v -0.82298 l -0.68725,0.004 v 2.5164 l 2.46307,-0.007 v -2.41184 z m -0.93621,0.005 -0.62375,0.004 v 0.63128 h 0.62375 v -0.52276 z"
       fill-rule="evenodd"
       id="path890"
       style="stroke-width:0.264583" />
    <path
       d="m 204.94033,85.603389 v 5.24629 0.30115 l -3.175,0.009 v -0.19069 h 0.0173 v -2.4852 h -0.0173 v -0.19079 h 0.0173 v -2.68872 z m -0.23529,0.191 h -0.73271 v 0.91702 h -1.3251 v -0.91702 h -0.51849 -0.11049 v 2.49836 l 2.68679,-0.0146 z m -0.96883,0 h -0.7429 -0.10996 v 0.72603 h 0.85286 z m 0.96883,2.67465 -0.7849,0.004 v 0.81902 h -1.15226 v -0.81291 l -0.74963,0.004 v 2.48542 l 2.68679,-0.007 v -2.38215 z m -1.02122,0.005 -0.68044,0.004 v 0.62349 h 0.68044 v -0.51631 z"
       fill-rule="evenodd"
       id="path892"
       style="stroke-width:0.264583" />
    <path
       d="m 207.58616,88.249219 v 2.59673 0.30474 l -3.17503,0.009 v -0.19299 h 0.0173 v -2.51518 h -0.0173 v -0.19309 h 0.0173 v -0.009 h 0.23548 v 0.009 l 1.62732,-0.009 z m -0.23526,0.18733 -0.78499,0.004 v 0.82888 h -1.15226 v -0.8227 l -0.74971,0.004 v 2.5154 l 2.68696,-0.007 v -2.41076 z m -1.02131,0.005 -0.68045,0.004 v 0.631 h 0.68045 v -0.52252 z"
       fill-rule="evenodd"
       id="path894"
       style="stroke-width:0.264583" />
    <path
       d="m 229.25713,88.895409 -0.0997,1.48519 0.25683,6.95458 -0.81642,0.30675 c 0,0 -15.93168,-0.21394 -15.93168,-0.21394 l -0.44984,-0.74512 0.0199,-7.30797 0.4663,-0.59443 14.97633,-0.13437 z"
       stroke="#ffffff"
       stroke-width="0.124444"
       stroke-miterlimit="8"
       fill="#ffffff"
       fill-rule="evenodd"
       id="path896" />
    <path
       d="m 216.9908,88.513989 c 1.04085,-8.6e-4 2.26934,0.002 3.69819,0.005 4.68855,0.0117 6.80866,-0.003 7.77624,0.0837 0.24188,0.0217 0.41209,0.0491 0.53872,0.0891 0.1266,0.0401 0.2173,0.0982 0.26431,0.1799 0.047,0.0818 0.0448,0.16784 0.0368,0.24954 -0.008,0.0818 -0.0237,0.16591 -0.0259,0.25968 -0.003,0.12738 -0.0135,0.24709 -0.0293,0.34182 -0.008,0.0474 -0.0171,0.0878 -0.0284,0.12281 -0.006,0.0175 -0.011,0.0334 -0.0201,0.05 -0.009,0.0166 -0.0185,0.0364 -0.0527,0.0564 0.0178,-0.0104 6.6e-4,-1.1e-4 -0.008,0.0297 -0.008,0.0298 -0.0128,0.0731 -0.0117,0.11347 0.001,0.0403 0.008,0.079 0.0151,0.0977 0.003,0.002 0.0186,0.009 0.0251,0.0133 0.0144,0.0103 0.0223,0.0197 0.0276,0.0273 0.0105,0.0153 0.0136,0.0251 0.0167,0.0344 0.006,0.0188 0.009,0.0359 0.0126,0.0571 0.007,0.0424 0.0124,0.0994 0.0176,0.1744 0.0103,0.15003 0.0182,0.37042 0.0251,0.66095 0.0137,0.58095 0.0209,1.441 0.0209,2.56231 v 3.48681 l -0.25429,0.18775 c -0.0542,0.04 -0.13425,0.0881 -0.30451,0.11178 -0.17023,0.0237 -0.44791,0.0381 -0.97366,0.0478 -1.05156,0.0193 -3.08946,0.0182 -7.15299,0.0157 -2.71841,-0.002 -4.77051,-0.0102 -6.15844,-0.0243 -0.69397,-0.007 -1.22182,-0.0157 -1.58432,-0.0259 -0.18119,-0.005 -0.32102,-0.0105 -0.42074,-0.0164 -0.0499,-0.003 -0.0892,-0.006 -0.12047,-0.009 -0.0313,-0.004 -0.0435,0.001 -0.087,-0.0189 -0.17158,-0.0781 -0.2934,-0.21976 -0.34801,-0.4786 -0.0545,-0.25895 -0.0661,-0.6476 -0.0661,-1.29604 v -4.35244 c 0,-1.1812 0.005,-1.81141 0.0594,-2.18067 0.0275,-0.18458 0.0675,-0.30853 0.13724,-0.40115 0.0697,-0.0927 0.16579,-0.14134 0.26516,-0.1799 0.0493,-0.0192 0.0766,-0.0177 0.13552,-0.0227 0.0589,-0.005 0.1379,-0.01 0.23842,-0.0141 0.20092,-0.008 0.48876,-0.0148 0.87074,-0.0203 0.73816,-0.0108 1.86651,-0.0161 3.3469,-0.0173 v -8.4e-4 z m 0.11878,0.19707 h -0.11878 c -1.56061,8.4e-4 -2.69938,0.006 -3.46143,0.0173 -0.38111,0.006 -0.66768,0.0129 -0.86498,0.0211 -0.0986,0.004 -0.17518,0.008 -0.22833,0.0125 -0.0533,0.004 -0.0948,0.0169 -0.0737,0.009 -0.087,0.0338 -0.13428,0.0591 -0.17394,0.1119 -0.0398,0.0528 -0.076,0.14527 -0.10131,0.31522 -0.0504,0.33969 -0.0577,0.97267 -0.0577,2.15322 v 4.35192 c 0,0.6459 0.0151,1.03127 0.0628,1.2577 0.0477,0.2263 0.10334,0.28099 0.23333,0.34023 -0.029,-0.0131 -0.005,-0.003 0.0193,0 0.0247,0.003 0.0619,0.006 0.10957,0.009 0.0953,0.006 0.2341,0.0114 0.41407,0.0164 0.35989,0.0101 0.88694,0.0189 1.58012,0.0259 1.38657,0.0141 3.43789,0.0217 6.15595,0.0235 4.06353,0.002 6.10275,0.004 7.14878,-0.0157 0.52303,-0.01 0.79841,-0.0247 0.94692,-0.0453 0.14851,-0.0208 0.15221,-0.0323 0.20494,-0.0712 l 0.17484,-0.12906 v -3.39143 c 0,-1.12046 -0.007,-1.9802 -0.0209,-2.55839 -0.007,-0.28916 -0.0151,-0.50773 -0.0251,-0.65236 -0.005,-0.0723 -0.0109,-0.12694 -0.0159,-0.15873 -9e-4,-0.006 -8.2e-4,-0.005 -0.002,-0.009 -0.007,-0.005 -0.0192,-0.005 -0.0243,-0.0102 -0.0234,-0.0239 -0.0355,-0.0484 -0.0452,-0.0735 -0.0194,-0.05 -0.027,-0.10416 -0.0284,-0.16032 -0.001,-0.0562 0.004,-0.11327 0.0184,-0.16655 0.0146,-0.0534 0.0334,-0.10893 0.10038,-0.14781 -0.0245,0.0142 -0.0238,0.0218 -0.0234,0.0211 3.7e-4,-8.6e-4 0.003,-0.008 0.007,-0.018 0.007,-0.0205 0.0148,-0.0547 0.0217,-0.0962 0.0138,-0.083 0.0239,-0.19634 0.0268,-0.31597 0.003,-0.11018 0.0191,-0.20268 0.026,-0.27293 0.007,-0.0704 0.002,-0.11242 -0.0126,-0.13849 -0.015,-0.0261 -0.0466,-0.0555 -0.14554,-0.0868 -0.0989,-0.0314 -0.25792,-0.0588 -0.49186,-0.0798 -0.93578,-0.084 -3.06785,-0.0712 -7.75695,-0.083 -1.38298,-0.003 -2.5599,-0.004 -3.57862,-0.004 z m 13.20183,0.17365 c 0.0319,2.2e-4 0.0479,0.004 0.0853,0.009 0.0375,0.006 0.0869,0.0143 0.14722,0.0251 0.12062,0.0214 0.28469,0.0528 0.48183,0.0907 0.39431,0.0759 0.91884,0.18013 1.47897,0.29488 1.10921,0.22728 1.65143,0.33292 1.99089,0.47785 0.16974,0.0725 0.28927,0.15862 0.38731,0.26828 0.098,0.10968 0.17559,0.2384 0.28022,0.40592 l 0.23924,0.38409 h -2.87509 -2.79644 v -0.7775 c 0,-0.28672 0.007,-0.46759 0.0335,-0.60777 0.0268,-0.14007 0.0805,-0.24041 0.15809,-0.33311 0.0534,-0.0639 0.11695,-0.11952 0.18153,-0.16191 0.0646,-0.0425 0.12372,-0.0763 0.20661,-0.0759 z m -0.002,0.19634 c 0.008,0 -0.0392,0.0104 -0.0853,0.0407 -0.0461,0.0302 -0.097,0.0749 -0.13637,0.12195 -0.0643,0.0768 -0.0951,0.13139 -0.1171,0.24636 -0.0221,0.11506 -0.0293,0.28946 -0.0293,0.57332 v 0.58043 h 2.58564 2.50871 l -0.0544,-0.0876 c -0.10532,-0.16857 -0.17995,-0.28883 -0.26015,-0.37859 -0.0802,-0.0897 -0.16587,-0.15267 -0.3137,-0.21581 -0.29568,-0.12632 -0.83867,-0.23725 -1.94823,-0.46463 -0.55938,-0.11464 -1.08254,-0.21923 -1.4756,-0.29487 -0.19654,-0.0378 -0.36055,-0.0688 -0.47932,-0.09 -0.0594,-0.0106 -0.1083,-0.0189 -0.14306,-0.0243 -0.0348,-0.005 -0.065,-0.007 -0.0519,-0.007 z m -1.27984,1.26786 c 0.004,0.004 0.005,0.008 0.0125,0.0133 0.006,0.005 0.0255,0.0127 0.0251,0.0125 -4.3e-4,-1.1e-4 0.0364,0.006 0.0359,0.006 -0.0306,0 -0.051,-0.018 -0.0736,-0.0321 z m 0.70098,0.59833 0.10623,8.6e-4 2.74291,0.0203 2.82408,0.0204 0.49018,1.83495 0.4743,1.77229 0.003,1.67147 c 0.001,0.80008 0.004,1.21751 0.0243,1.42828 0.0103,0.10533 0.0277,0.1569 0.036,0.17047 0.008,0.0134 4.8e-4,0.007 0.0343,0.0172 0.0443,0.0133 0.0978,0.0328 0.13886,0.0775 0.041,0.0446 0.0593,0.10139 0.0703,0.17044 0.0218,0.13841 0.0175,0.35095 0.007,0.75253 l -0.0259,0.94946 -1.26063,0.0227 c -0.31937,0.006 -0.61052,0.009 -0.82313,0.009 -0.10629,0 -0.19271,-8.4e-4 -0.25428,-0.002 -0.0308,-8.2e-4 -0.0553,-0.002 -0.0745,-0.003 -0.01,-8.4e-4 -0.0177,-8.4e-4 -0.0276,-0.002 -0.005,-8.5e-4 -0.009,-0.002 -0.0192,-0.005 -0.005,-0.002 -0.0223,-0.008 -0.0226,-0.009 -1.7e-4,-7e-5 -0.02,-0.014 -0.0201,-0.0141 -1.2e-4,-1.1e-4 -0.0259,-0.0359 -0.0259,-0.036 l -8.6e-4,-0.002 -8.6e-4,-0.003 c -0.006,-0.0163 -0.005,-0.0164 -0.006,-0.0227 -0.001,-0.006 -0.003,-0.0133 -0.004,-0.0218 -0.003,-0.0172 -0.006,-0.0399 -0.0101,-0.0665 -0.008,-0.0531 -0.0178,-0.12301 -0.0276,-0.19706 -0.1249,-0.94692 -0.87933,-1.59719 -1.84033,-1.59719 -0.54594,0 -0.89014,0.14698 -1.37104,0.59209 -0.12584,0.11644 -0.24075,0.23648 -0.32205,0.33321 -0.0407,0.0483 -0.0726,0.0906 -0.0928,0.12208 -0.0203,0.0312 -0.0217,0.0624 -0.0217,0.032 0,0.0693 -0.0463,0.14653 -0.1138,0.18066 -0.0674,0.0341 -0.14237,0.0407 -0.23588,0.0407 h -0.34967 v -4.11797 z m 0.2108,0.19867 v 3.92015 3.92173 h 0.13888 c 0.0772,0 0.12435,-0.0111 0.13634,-0.0173 0.012,-0.006 0.003,0.009 0.003,-0.008 0,-0.0645 0.0254,-0.0908 0.0527,-0.13298 0.0272,-0.0423 0.0637,-0.0906 0.1079,-0.14314 0.0884,-0.1052 0.20711,-0.2294 0.33877,-0.35124 0.50186,-0.46452 0.9294,-0.6492 1.51911,-0.6492 1.06381,0 1.91319,0.738 2.04945,1.77083 0.01,0.0732 0.0191,0.14221 0.0268,0.19401 8.8e-4,0.006 0.002,0.009 0.003,0.0148 0.003,10e-5 0.004,-1.1e-4 0.007,0 0.0582,0.002 0.14317,0.002 0.24845,0.002 0.21052,0 0.5007,-0.003 0.81895,-0.009 l 1.05985,-0.0195 0.0201,-0.7611 c 0.0108,-0.40071 0.0127,-0.61695 -0.003,-0.71879 -0.008,-0.0508 -0.0189,-0.0672 -0.0226,-0.0711 -0.004,-0.004 -0.0108,-0.009 -0.0427,-0.0189 -0.0459,-0.0136 -0.11534,-0.0449 -0.15308,-0.10636 -0.0377,-0.0614 -0.0514,-0.13436 -0.0627,-0.25027 -0.0227,-0.23183 -0.024,-0.64519 -0.0251,-1.44547 l -0.003,-1.64791 -0.46762,-1.74892 -0.45172,-1.68711 -2.66094,-0.0195 z m 4.04034,0.79933 8.5e-4,0.002 c 0.43591,4.2e-4 0.72463,0.003 0.89257,0.0219 0.0898,0.01 0.15537,0.0242 0.21163,0.0508 0.0563,0.0267 0.099,0.0708 0.12214,0.11263 0.0529,0.0954 0.10507,0.274 0.17484,0.52565 0.0697,0.25154 0.14858,0.56422 0.2225,0.87987 0.0739,0.31562 0.14314,0.63402 0.19407,0.89797 0.0509,0.26382 0.0845,0.46524 0.0845,0.57872 0,0.16677 -0.002,0.26837 -0.0401,0.35748 -0.0192,0.0445 -0.0516,0.0854 -0.092,0.11179 -0.0404,0.0265 -0.0837,0.0403 -0.12882,0.0517 -0.1173,0.0294 -0.18536,0.0496 -0.26601,0.0422 -0.0806,-0.007 -0.13963,-0.0422 -0.22837,-0.0907 -0.0669,-0.0367 -0.1232,-0.0891 -0.14891,-0.15727 -0.0257,-0.0681 -0.0203,-0.14057 0,-0.21667 l 0.0167,-0.0625 h -1.07992 c -0.51665,0 -0.82222,-0.004 -1.01386,-0.022 -0.0958,-0.009 -0.16383,-0.0211 -0.22167,-0.0446 -0.0578,-0.0236 -0.10681,-0.0695 -0.12631,-0.11729 -0.0229,-0.0562 -0.0286,-0.1169 -0.0368,-0.20728 -0.008,-0.0905 -0.0135,-0.20394 -0.0175,-0.33321 -0.008,-0.25853 -0.009,-0.57981 -0.003,-0.89713 0.006,-0.31723 0.0172,-0.63002 0.0343,-0.87127 0.009,-0.1207 0.0187,-0.22368 0.0301,-0.30197 0.006,-0.0391 0.0118,-0.0718 0.0193,-0.10014 0.007,-0.0283 0.003,-0.0483 0.046,-0.0891 0.0498,-0.0468 0.0987,-0.055 0.16396,-0.068 0.0652,-0.0131 0.14698,-0.0228 0.25012,-0.0305 0.20619,-0.0156 0.49617,-0.0227 0.87915,-0.0227 z m -2.4928,0.009 0.003,0.002 c 0.0754,-3.2e-4 0.15936,8.5e-4 0.26519,0.005 l 0.66752,0.0266 v 1.5104 1.51115 l -0.68594,0.0257 c -0.25826,0.01 -0.40896,0.0129 -0.52533,-0.009 -0.11633,-0.0224 -0.19899,-0.0932 -0.24341,-0.17132 -0.0332,-0.0584 -0.0414,-0.11771 -0.0535,-0.20492 -0.0122,-0.0872 -0.0211,-0.19603 -0.0284,-0.31988 -0.0148,-0.24783 -0.0213,-0.55594 -0.0193,-0.8627 0.002,-0.30684 0.0121,-0.61166 0.0301,-0.85262 0.009,-0.12036 0.02,-0.22495 0.0335,-0.30737 0.007,-0.0412 0.0138,-0.0768 0.0226,-0.10787 0.009,-0.0311 0.0158,-0.0562 0.0402,-0.0876 0.0411,-0.0529 0.10242,-0.0985 0.17899,-0.12279 0.0766,-0.0243 0.16568,-0.0322 0.28776,-0.0337 z m 2.43174,0.18767 c -0.3801,0 -0.66686,0.008 -0.86244,0.0226 -0.0978,0.007 -0.17317,0.0165 -0.22333,0.0266 -0.0423,0.008 -0.0526,0.0164 -0.0494,0.0117 -0.004,0.017 -0.01,0.0446 -0.0151,0.0798 -0.0102,0.0703 -0.0201,0.17058 -0.0285,0.28861 -0.0167,0.23609 -0.0286,0.54631 -0.0343,0.86111 -0.006,0.3148 -0.005,0.63447 0.003,0.88855 0.004,0.12703 0.01,0.23765 0.0176,0.32221 0.008,0.0845 0.0221,0.15005 0.0234,0.1533 0.002,0.004 -0.008,-0.002 0.0134,0.007 0.0217,0.009 0.074,0.0215 0.15976,0.0297 0.17155,0.0164 0.47678,0.0211 0.99213,0.0211 h 1.34844 l -0.051,0.19166 c 0.004,-0.004 0.005,-0.009 0.009,-0.0125 0.0751,-0.0617 0.17923,-0.0997 0.29527,-0.10088 h 8.6e-4 c 0.0629,-4.3e-4 0.12074,0.0408 0.15308,0.0875 2e-5,-0.003 8.6e-4,-0.002 8.6e-4,-0.005 0,-0.0708 -0.03,-0.28323 -0.0803,-0.54366 -0.0503,-0.26043 -0.11977,-0.57714 -0.19325,-0.89085 -0.0734,-0.31375 -0.15122,-0.62484 -0.21998,-0.87289 -0.0688,-0.24792 -0.13626,-0.44469 -0.15812,-0.48411 -0.009,-0.017 -0.0101,-0.0187 -0.0301,-0.0282 -0.02,-0.01 -0.0645,-0.0218 -0.1422,-0.0305 -0.15543,-0.0174 -0.4376,-0.0226 -0.92936,-0.0226 z m -2.45682,0.009 c -0.11229,0.001 -0.18304,0.0107 -0.22336,0.0234 -0.0403,0.0128 -0.0536,0.0234 -0.0761,0.0524 0.008,-0.0103 -9e-4,0.002 -0.007,0.0227 -0.006,0.0204 -0.0116,0.05 -0.0176,0.0868 -0.012,0.0735 -0.023,0.1745 -0.0318,0.29171 -0.0176,0.23447 -0.0273,0.5357 -0.0293,0.83926 -0.002,0.30358 0.004,0.60925 0.0184,0.85105 0.007,0.12079 0.0165,0.22641 0.0276,0.30578 0.0111,0.0794 0.0312,0.13965 0.0301,0.13764 0.0312,0.0548 0.0274,0.0573 0.0996,0.0712 0.0721,0.0138 0.21958,0.0153 0.47512,0.006 l 0.48434,-0.0187 v -1.32191 -1.32181 l -0.46759,-0.0188 c -0.11446,-0.005 -0.20712,-0.007 -0.28274,-0.006 z m 4.03279,2.98543 c -0.0531,0.007 -0.10692,0.0225 -0.13383,0.0446 -0.0133,0.0109 -0.0175,0.0187 -0.0201,0.0235 0.005,0.001 0.0496,0.0238 0.0778,0.0188 0.0258,-0.005 0.0655,-0.0464 0.0761,-0.0845 4.2e-4,-0.002 -3.2e-4,-8.4e-4 0,-0.002 z m 0.15895,0.0938 c -0.0251,0.0534 -0.0738,0.0903 -0.13049,0.12356 0.0203,-0.005 0.0166,-0.002 0.0435,-0.009 0.0343,-0.009 0.0539,-0.0168 0.0627,-0.0227 0.009,-0.006 0.0116,-0.008 0.0184,-0.0234 0.003,-0.008 0.003,-0.0541 0.006,-0.0689 z m -3.40458,2.66957 c 0.96446,-1.1e-4 1.74824,0.73734 1.74832,1.64325 2e-5,0.906041 -0.78378,1.642531 -1.74832,1.642531 -0.96451,-1e-4 -1.74836,-0.7366 -1.74831,-1.642531 3e-5,-0.90591 0.78388,-1.64325 1.74831,-1.64325 z m -5.72759,0.014 v 0.005 c 1.56702,-0.002 2.35341,-0.006 2.7128,0.11422 0.0936,0.0312 0.16811,0.0735 0.22,0.13214 0.0519,0.0588 0.0765,0.1298 0.0862,0.20026 0.0192,0.14092 -0.008,0.29244 -0.008,0.48887 0,0.37828 -0.0349,0.62283 -0.14806,0.78526 l -0.16312,0.23384 h -4.07048 -4.10305 l -0.0703,-0.40826 c -0.083,-0.48283 -0.29633,-0.87328 -0.60568,-1.12863 l -0.50935,-0.42087 h 4.83666 c 0.65577,0 1.22156,-0.002 1.70982,-0.002 z m -8.1284,0.002 -0.50019,0.41379 c -0.31898,0.26339 -0.5402,0.63455 -0.62066,1.04576 -0.031,0.15809 -0.0694,0.27506 -0.1414,0.3629 -0.0721,0.0879 -0.18504,0.13224 -0.30202,0.13373 -0.0492,8.4e-4 -0.0974,-0.025 -0.12464,-0.0548 -0.0271,-0.0297 -0.0415,-0.0617 -0.0527,-0.0969 -0.0224,-0.0705 -0.0309,-0.15682 -0.0309,-0.26522 0,-0.37888 -0.25506,-0.86977 -0.59809,-1.13562 l -0.52035,-0.4036 h 0.29112 1.16104 z m -4.39917,0 -0.47175,0.44345 c -0.11965,0.11252 -0.13031,0.26712 -0.21246,0.38798 0.30506,-0.48101 0.83968,-0.81965 1.47801,-0.81965 0.96457,-1.1e-4 1.74829,0.73649 1.74842,1.64251 0,0.905931 -0.78385,1.643271 -1.74842,1.643271 -0.96446,0 -1.74829,-0.73734 -1.74829,-1.643271 0,-0.19294 0.0527,-0.37233 0.11798,-0.54441 -0.0607,0.13787 -0.19209,0.23958 -0.22167,0.40359 -0.0277,0.15407 -0.0411,0.2525 -0.12046,0.33081 -0.0396,0.0392 -0.0923,0.0619 -0.1456,0.0744 -0.0531,0.0125 -0.11039,0.0179 -0.18063,0.0234 -0.20804,0.0164 -0.39061,-0.0188 -0.50858,-0.1298 -0.0697,-0.0655 -0.11049,-0.15798 -0.13304,-0.28311 -0.0224,-0.12525 -0.0301,-0.28905 -0.0301,-0.52257 0,-0.22601 -4.5e-4,-0.3968 0.0168,-0.53412 0.0171,-0.13732 0.0534,-0.24963 0.14052,-0.3293 0.0873,-0.0797 0.20772,-0.11192 0.35718,-0.12748 0.14957,-0.0156 0.33679,-0.0157 0.58394,-0.0157 z m 5.1412,0.0118 c 0.96443,-1.1e-4 1.74736,0.73649 1.74749,1.64251 0,0.905931 -0.78293,1.643271 -1.74749,1.643271 -0.96449,0 -1.74842,-0.73734 -1.74829,-1.643271 0,-0.90591 0.7838,-1.64251 1.74829,-1.64251 z m 13.11396,0.16888 c -0.85018,1.1e-4 -1.53749,0.64601 -1.53752,1.44619 -5e-5,0.800281 0.68731,1.446181 1.53752,1.446181 0.85027,1.1e-4 1.53752,-0.6459 1.5375,-1.446181 -6e-5,-0.80026 -0.68728,-1.44619 -1.5375,-1.44619 z m -5.83969,0.0141 h -0.11293 c -0.46527,4.3e-4 -0.98478,0.002 -1.59774,0.002 h -4.2813 l 0.0929,0.0767 c 0.35298,0.29138 0.58507,0.72591 0.67427,1.24444 l 0.0418,0.24243 h 3.92401 3.95674 l 0.10038,-0.14388 c 0.0665,-0.0955 0.11459,-0.31353 0.11459,-0.67812 0,-0.21138 0.0221,-0.36978 0.009,-0.46387 -0.006,-0.047 -0.0178,-0.0757 -0.0393,-0.10012 -0.0216,-0.0244 -0.0578,-0.0494 -0.12798,-0.0727 -0.28062,-0.0936 -1.04685,-0.10967 -2.75463,-0.10724 z m -8.57168,0.002 h -0.88345 -0.86902 l 0.071,0.0556 c 0.3983,0.30866 0.67506,0.82976 0.67506,1.28661 0,0.0975 0.01,0.17103 0.0217,0.20887 10e-5,3.9e-4 -1.4e-4,3.1e-4 0,8.4e-4 0.0469,-0.005 0.0822,-0.0108 0.11128,-0.0462 0.036,-0.0439 0.0729,-0.13362 0.10118,-0.27845 0.0887,-0.45321 0.33133,-0.86344 0.68762,-1.15758 z m -4.34986,0 h -0.57216 c -0.24704,0 -0.43106,4.3e-4 -0.56047,0.0142 -0.12941,0.0134 -0.19582,0.0383 -0.23344,0.0727 -0.0376,0.0343 -0.0639,0.0936 -0.0787,0.21117 -0.0146,0.11771 -0.0159,0.28577 -0.0159,0.51154 0,0.22918 0.009,0.38653 0.0276,0.49035 0.0186,0.10385 0.044,0.14825 0.0744,0.17685 0.0526,0.0495 0.17145,0.0854 0.34211,0.0719 0.0676,-0.005 0.11636,-0.011 0.14642,-0.018 0.03,-0.007 0.0374,-0.012 0.0443,-0.0188 0.0138,-0.0137 0.0389,-0.0777 0.0661,-0.22844 0.0844,-0.46813 0.28908,-0.84095 0.64489,-1.17557 z m 5.64727,0.011 c -0.85014,0 -1.53834,0.64601 -1.53834,1.44619 -1.1e-4,0.800311 0.68807,1.446211 1.53834,1.446211 0.85021,1e-4 1.53749,-0.6459 1.53749,-1.446211 0,-0.80029 -0.68728,-1.44619 -1.53749,-1.44619 z m -4.3474,0 c -0.85011,0 -1.53739,0.64601 -1.53752,1.44619 0,0.800311 0.68741,1.446211 1.53752,1.446211 0.85035,1e-4 1.53765,-0.6459 1.53752,-1.446211 0,-0.80029 -0.68728,-1.44619 -1.53752,-1.44619 z m 17.46136,0.27527 c 0.67109,0 1.21627,0.51348 1.21627,1.14358 0,0.630141 -0.54518,1.143481 -1.21627,1.143481 -0.67114,0 -1.21713,-0.51334 -1.21713,-1.143481 0,-0.62989 0.54544,-1.14315 1.21629,-1.14358 z m -13.11478,0.0275 c 0.67109,0 1.21705,0.51345 1.21705,1.14345 0,0.630131 -0.54596,1.143581 -1.21705,1.143581 -0.67117,0 -1.21637,-0.51345 -1.21637,-1.143581 0,-0.62979 0.54462,-1.14314 1.21547,-1.14345 z m -4.34658,0 c 0.6712,0 1.21637,0.51345 1.21637,1.14345 0,0.630131 -0.54517,1.143581 -1.21637,1.143581 -0.67109,0 -1.21706,-0.51345 -1.21706,-1.143581 0,-0.62979 0.54542,-1.14314 1.21627,-1.14345 z m 17.46136,0.16888 h -8.7e-4 c -0.5566,3.2e-4 -1.00632,0.42296 -1.00632,0.94723 0,0.524381 0.45032,0.947161 1.00714,0.947161 0.55684,0 1.00632,-0.42278 1.00632,-0.947161 0,-0.52448 -0.44948,-0.94723 -1.00632,-0.94723 z m -13.11478,0.0274 c -0.55661,3.4e-4 -1.00637,0.42299 -1.00637,0.94713 0,0.524481 0.44952,0.947261 1.00637,0.947261 0.55686,0 1.00708,-0.42278 1.00708,-0.947261 0,-0.52436 -0.45022,-0.94713 -1.00708,-0.94713 z m -4.34658,0 h -9e-4 c -0.55663,3.4e-4 -1.00626,0.42299 -1.00626,0.94713 0,0.524481 0.45032,0.947261 1.00716,0.947261 0.55684,0 1.00626,-0.42278 1.00626,-0.947261 0,-0.52436 -0.44942,-0.94713 -1.00626,-0.94713 z m 17.46136,0.0766 c 0.49469,0 0.89747,0.37899 0.89755,0.84317 3e-5,0.464321 -0.40278,0.843201 -0.89755,0.843201 -0.49477,0 -0.8976,-0.37888 -0.8976,-0.843201 8e-5,-0.46185 0.3987,-0.83999 0.89091,-0.84317 3.2e-4,0 5e-4,0 8.5e-4,0 0.002,0 0.004,0 0.006,0 z m -13.1132,0.0274 c 0.49443,3.9e-4 0.89673,0.3792 0.89684,0.84317 0,0.464321 -0.40286,0.843101 -0.8976,0.843101 -0.49477,0 -0.8976,-0.37878 -0.8976,-0.843101 1e-4,-0.46183 0.39875,-0.84 0.8909,-0.84317 3.5e-4,0 4.5e-4,0 9e-4,0 0.002,0 0.004,0 0.006,0 z m -4.34726,0 c 0.49432,3.9e-4 0.89659,0.3792 0.8967,0.84317 0,0.464321 -0.40272,0.843101 -0.8976,0.843101 -0.49474,0 -0.8976,-0.37878 -0.89749,-0.843101 0,-0.46183 0.39867,-0.84 0.8908,-0.84317 3.4e-4,0 4.7e-4,0 9.2e-4,0 0.002,0 0.004,0 0.006,0 z m 17.46046,0.16888 h -8.7e-4 c -0.001,0 -0.002,0 -0.004,0 -3.4e-4,0 -4.7e-4,0 -8.4e-4,0 -0.37796,0.003 -0.68173,0.29043 -0.68178,0.64685 0,0.35867 0.30715,0.646881 0.68762,0.646881 0.38047,0 0.68678,-0.288211 0.68678,-0.646881 -8e-5,-0.35853 -0.30636,-0.64685 -0.68678,-0.64685 z m -13.11396,0.0274 h -9.3e-4 c -9e-4,0 -0.003,0 -0.005,0 -2.4e-4,0 -4.5e-4,0 -9e-4,0 -0.37793,0.003 -0.68086,0.29043 -0.68094,0.64685 0,0.35856 0.30708,0.646881 0.6876,0.646881 0.38055,0 0.68684,-0.288321 0.68673,-0.646881 0,-0.35854 -0.30631,-0.64685 -0.68673,-0.64685 z m -4.3474,0 h -9e-4 c -9e-4,0 -0.002,0 -0.004,0 -3.4e-4,0 -4.5e-4,0 -8.9e-4,0 -0.37804,0.003 -0.68173,0.29043 -0.68184,0.64685 0,0.35856 0.30721,0.646881 0.68763,0.646881 0.38052,0 0.68683,-0.288321 0.68683,-0.646881 -1.3e-4,-0.35854 -0.30644,-0.64685 -0.68683,-0.64685 z"
       fill-rule="evenodd"
       id="path898"
       style="stroke-width:0.264583" />
    <path
       d="m 220.13228,89.969019 4.23341,4.4e-4 v 3.44401 h 3.72568 v 3.43784 0.52607 l -7.38672,-0.0209 v 0.0209 l -7.95911,-0.0226 v -0.52604 -6.85967 l 4.23341,4.4e-4 v 3.44414 h 3.15333 z m 3.66117,0.52651 h -0.51123 v 1.17445 h -1.93667 v -1.17445 h -0.6409 v 2.8999 l 3.0888,0.0169 z m -1.08357,0 h -0.79198 v 0.64817 h 0.79198 z m -6.3033,0 h -0.5111 v 1.17445 h -1.9368 v -1.17445 h -0.6409 v 2.8999 l 3.0888,0.0169 z m -1.08345,0 h -0.79208 v 0.64817 h 0.79208 z m 5.38152,3.42573 v 2.90946 l 3.0888,0.009 v -2.90142 l -0.66259,-0.004 v 1.0405 h -1.72025 v -1.04973 z m -7.38687,0 v 2.90946 l 3.0888,0.009 v -2.90142 l -0.66236,-0.004 v 1.0405 h -1.72035 v -1.04973 z m 8.66521,0.007 v 0.52065 h 0.57573 v -0.51737 z m -7.38675,0 v 0.52065 h 0.57574 v -0.51737 z m 12.92275,0.0114 h -0.48885 v 0.99576 h -1.937 v -0.99576 h -0.72745 v 2.90121 l 3.1533,0.009 z m -1.06123,0 h -0.79282 v 0.46969 h 0.79282 z m -6.32548,0 h -0.48887 v 0.99576 h -1.93702 v -0.99576 h -0.72744 v 2.90121 l 3.15333,0.009 v -0.0209 z m -1.06122,0 h -0.79287 v 0.46969 h 0.79287 z"
       stroke="#ffffff"
       stroke-miterlimit="8"
       fill-rule="evenodd"
       id="path900"
       style="stroke-width:0.264583" />
    <path
       d="M 61.139287,106.37318 H 88.655953 V 121.9836 H 61.139287 Z"
       stroke="#000000"
       stroke-width="0.705556"
       stroke-miterlimit="8"
       fill="#ffffff"
       fill-rule="evenodd"
       id="path902" />
    <path
       d="m 58.625745,112.59089 h 5.291667 v 2.91042 h -5.291667 z"
       stroke="#060000"
       stroke-width="0.529167"
       stroke-miterlimit="8"
       fill="#ffffff"
       fill-rule="evenodd"
       id="path904" />
    <path
       d="m 58.625745,108.35756 h 5.291667 v 2.91041 h -5.291667 z"
       stroke="#060000"
       stroke-width="0.529167"
       stroke-miterlimit="8"
       fill="#ffffff"
       fill-rule="evenodd"
       id="path906" />
    <text
       font-family="Arial, Arial_MSFontService, sans-serif"
       font-weight="700"
       font-size="3.43958px"
       id="text910"
       x="70.418488"
       y="113.12006"
       style="stroke-width:0.264583">Sales <tspan
   font-size="3.43958px"
   x="68.742798"
   y="117.35339"
   id="tspan908"
   style="stroke-width:0.0700043">System</tspan></text>
    <path
       d="m 180.73096,101.3461 h 27.25208 v 15.61042 h -27.25208 z"
       stroke="#000000"
       stroke-width="0.705556"
       stroke-miterlimit="8"
       fill="#ffffff"
       fill-rule="evenodd"
       id="path912" />
    <path
       d="m 178.21741,107.56381 h 5.29167 v 2.91041 h -5.29167 z"
       stroke="#000000"
       stroke-width="0.529167"
       stroke-miterlimit="8"
       fill="#ffffff"
       fill-rule="evenodd"
       id="path914" />
    <path
       d="m 178.21741,103.33047 h 5.29167 v 2.91042 h -5.29167 z"
       stroke="#000000"
       stroke-width="0.529167"
       stroke-miterlimit="8"
       fill="#ffffff"
       fill-rule="evenodd"
       id="path916" />
    <text
       font-family="Arial, Arial_MSFontService, sans-serif"
       font-weight="700"
       font-size="3.43958px"
       id="text920"
       x="188.46896"
       y="108.09296"
       style="stroke-width:0.264583">Delivery<tspan
   font-size="3.43958px"
   x="189.04222"
   y="112.32629"
   id="tspan918"
   style="stroke-width:0.0700043">System</tspan></text>
    <g
       id="g14054">
      <path
         style="fill:none;stroke:#ffffff;stroke-width:0.264583px;stroke-linecap:butt;stroke-linejoin:miter;stroke-opacity:1"
         d="m 222.41226,79.241673 -0.76171,0.749308 0.3917,0.153998 0.64442,-0.666626 z"
         id="path13937" />
      <path
         id="text1820"
         style="font-style:normal;font-weight:normal;font-size:4.23333px;line-height:1.25;font-family:sans-serif;fill:#000000;fill-opacity:1;stroke:none;stroke-width:0.999999"
         d="M 789.61328 274.15625 C 789.45076 274.15749 789.2836 274.16491 789.11133 274.17773 C 788.4256 274.2225 787.54217 274.41909 786.46094 274.76562 L 783.69336 275.65234 L 787.24414 286.73047 L 790.04102 285.83398 C 791.05777 285.50809 791.85423 285.17548 792.42969 284.83789 C 793.01011 284.49871 793.50441 284.0918 793.91016 283.61719 C 794.49458 282.93216 794.87271 282.1106 795.04688 281.15234 C 795.22597 280.19249 795.15474 279.20996 794.83203 278.20312 C 794.48707 277.12687 793.97744 276.26376 793.30469 275.61523 C 792.63193 274.96671 791.84436 274.52837 790.93945 274.29883 C 790.67503 274.23318 790.39042 274.18992 790.08594 274.16992 C 789.93369 274.15993 789.7758 274.15501 789.61328 274.15625 z M 809.06055 274.6582 L 804.70508 286.17578 L 806.09766 286.70312 L 810.45312 275.18359 L 809.06055 274.6582 z M 800.5625 275.23633 C 800.00129 275.25115 799.46176 275.38722 798.94141 275.64453 C 797.90564 276.16101 797.13046 277.09702 796.61914 278.44922 C 796.10222 279.81622 796.0881 281.01643 796.57617 282.05273 C 797.06611 283.08411 797.9972 283.86012 799.36914 284.37891 C 799.90706 284.58232 800.44542 284.71022 800.98438 284.76172 C 801.52331 284.81322 802.06395 284.82871 802.60742 284.80859 L 803.18164 283.29102 L 803.10742 283.26172 C 802.7835 283.38742 802.29307 283.45626 801.63477 283.4668 C 800.98326 283.47427 800.37705 283.37094 799.81445 283.1582 C 799.39004 282.99771 799.02147 282.79187 798.71094 282.53906 C 798.40534 282.28813 798.169 281.99603 798.00195 281.66211 C 797.8269 281.31952 797.73382 280.93096 797.72266 280.49805 C 797.71336 280.0602 797.80583 279.58839 797.99805 279.08008 L 804.08984 281.38281 L 804.375 280.62891 C 804.82847 279.4297 804.87435 278.38877 804.51367 277.50781 C 804.15793 276.62872 803.42391 275.97839 802.30859 275.55664 C 801.70652 275.32897 801.12371 275.22151 800.5625 275.23633 z M 789.1582 275.55273 C 789.28804 275.54795 789.41723 275.54907 789.54688 275.55469 C 789.80615 275.56593 790.06429 275.5983 790.32227 275.65234 C 791.03209 275.80221 791.63364 276.1268 792.12695 276.625 C 792.62027 277.1232 793.00696 277.80586 793.28516 278.67383 C 793.56177 279.53683 793.65194 280.30048 793.55859 280.96484 C 793.47021 281.62761 793.2072 282.22335 792.76953 282.75195 C 792.41872 283.17615 791.99536 283.52457 791.49805 283.79883 C 791.00569 284.07149 790.40456 284.3215 789.69531 284.54883 L 788.3125 284.99219 L 785.57227 276.44531 L 786.95508 276.00195 C 787.63953 275.78257 788.24476 275.64217 788.76758 275.58398 C 788.89788 275.5682 789.02837 275.55752 789.1582 275.55273 z M 800.73242 276.46094 C 801.07128 276.46357 801.42819 276.53489 801.80078 276.67578 C 802.54103 276.9557 803.01551 277.36443 803.22461 277.90039 C 803.43864 278.43822 803.40993 279.07244 803.13867 279.80469 L 798.40039 278.01367 C 798.70594 277.38464 799.16227 276.93329 799.76758 276.66016 C 800.0727 276.52452 800.39357 276.45831 800.73242 276.46094 z M 812.97266 276.61914 L 812.42773 278.0625 L 813.99609 278.65625 L 814.54297 277.21289 L 812.97266 276.61914 z M 773.77148 279.25 L 772.37305 279.69922 L 773.13867 282.08789 L 772.19336 282.39062 L 772.57031 283.56445 L 773.51562 283.26172 L 774.93164 287.68164 C 775.25435 288.68848 775.7092 289.34925 776.29688 289.66406 C 776.88453 289.97888 777.60305 290.00036 778.45117 289.72852 C 778.6942 289.65062 778.96266 289.53968 779.25586 289.39648 C 779.55402 289.25169 779.82384 289.10291 780.06445 288.94922 L 779.66016 287.69141 L 779.58594 287.7168 C 779.49113 287.79641 779.3312 287.90967 779.10547 288.05859 C 778.87815 288.20256 778.65001 288.31164 778.42188 288.38477 C 778.03005 288.51035 777.724 288.55853 777.50195 288.53125 C 777.28328 288.49742 777.08677 288.39975 776.91406 288.23633 C 776.72667 288.06121 776.58406 287.85581 776.48633 287.61914 C 776.387 287.37751 776.26685 287.03802 776.12695 286.60156 L 774.91406 282.81445 L 777.80078 281.88867 L 777.42383 280.71289 L 774.53711 281.63867 L 773.77148 279.25 z M 811.99219 279.48047 L 808.86523 287.75 L 810.25781 288.27539 L 813.38477 280.00781 L 811.99219 279.48047 z M 815.2207 280.70117 L 815.41602 290.22656 L 816.81641 290.75586 L 823.28906 283.75195 L 821.83008 283.20117 L 816.80273 288.82227 L 816.73047 281.27344 L 815.2207 280.70117 z M 770.26758 283.21094 C 770.0321 283.20574 769.77841 283.21398 769.50391 283.23633 C 768.95826 283.27448 768.43739 283.37228 767.94141 283.53125 C 767.41071 283.70135 766.95144 283.92597 766.56445 284.20312 C 766.18083 284.47375 765.88663 284.76966 765.68359 285.0918 C 765.47223 285.42207 765.34372 285.76073 765.29688 286.10938 C 765.25497 286.45641 765.28875 286.80231 765.39844 287.14453 C 765.57331 287.69011 765.87351 288.10284 766.29688 288.38281 C 766.72359 288.65624 767.33196 288.77268 768.12305 288.73242 C 768.40817 288.7176 768.71818 288.68871 769.05469 288.64648 C 769.39615 288.60267 769.67402 288.57168 769.88672 288.55273 C 770.46053 288.50008 770.86881 288.52654 771.11133 288.63477 C 771.35385 288.74299 771.52789 288.96172 771.63281 289.28906 C 771.76953 289.7156 771.69571 290.08291 771.41211 290.39258 C 771.12851 290.70225 770.67947 290.95717 770.06445 291.1543 C 769.56847 291.31327 769.01863 291.38148 768.41602 291.36133 C 767.81181 291.33621 767.23543 291.22793 766.6875 291.03711 L 766.61328 291.0625 L 767.11719 292.63086 C 767.52001 292.69317 768.00004 292.71807 768.55859 292.70312 C 769.12051 292.68165 769.7092 292.57212 770.32422 292.375 C 771.41041 292.02685 772.18711 291.50863 772.65625 290.82227 C 773.13035 290.13431 773.24713 289.41119 773.00391 288.65234 C 772.80996 288.04725 772.4776 287.61744 772.00781 287.36328 C 771.53962 287.11409 770.95719 287.02062 770.25977 287.08008 C 770.0306 287.09884 769.74381 287.13001 769.40234 287.17383 C 769.06584 287.21605 768.75941 287.24834 768.48242 287.27148 C 767.98123 287.3118 767.59989 287.27868 767.33594 287.17188 C 767.06703 287.06664 766.87727 286.84223 766.76758 286.5 C 766.64358 286.11314 766.72743 285.76724 767.01758 285.46094 C 767.30614 285.14968 767.70399 284.91179 768.21484 284.74805 C 768.70586 284.59067 769.23696 284.52124 769.80664 284.54102 C 770.37473 284.55583 770.87895 284.6387 771.32031 284.78711 L 771.39453 284.76172 L 770.91602 283.26758 C 770.71956 283.23483 770.50306 283.21613 770.26758 283.21094 z M 754.30664 285.07031 L 747.23242 287.33789 L 750.7832 298.41602 L 752.25586 297.94336 L 750.54492 292.60938 L 755.35938 291.06641 L 754.93945 289.75781 L 750.12695 291.30078 L 749.125 288.17578 L 754.72656 286.38086 L 754.30664 285.07031 z M 826.75391 285.14062 C 826.19269 285.15544 825.65121 285.29152 825.13086 285.54883 C 824.09509 286.06531 823.32187 286.99937 822.81055 288.35156 C 822.29363 289.71856 822.2795 290.92072 822.76758 291.95703 C 823.25752 292.9884 824.18666 293.76442 825.55859 294.2832 C 826.09651 294.48661 826.63683 294.61256 827.17578 294.66406 C 827.71473 294.71557 828.25536 294.73105 828.79883 294.71094 L 829.37305 293.19336 L 829.29883 293.16602 C 828.9749 293.29172 828.48252 293.36056 827.82422 293.37109 C 827.17271 293.37856 826.5665 293.27524 826.00391 293.0625 C 825.57949 292.90201 825.21288 292.69616 824.90234 292.44336 C 824.59674 292.19242 824.36041 291.90033 824.19336 291.56641 C 824.01831 291.22382 823.92522 290.83526 823.91406 290.40234 C 823.90477 289.9645 823.99529 289.49073 824.1875 288.98242 L 830.2793 291.28711 L 830.56445 290.53125 C 831.01793 289.33204 831.06575 288.29307 830.70508 287.41211 C 830.34934 286.53302 829.61336 285.88269 828.49805 285.46094 C 827.89597 285.23327 827.31512 285.12583 826.75391 285.14062 z M 760.71484 286.10547 C 760.60288 286.10627 760.48776 286.11163 760.37109 286.12305 C 759.9078 286.16216 759.38211 286.27531 758.79688 286.46289 C 758.29594 286.62345 757.80166 286.82938 757.31445 287.08398 C 756.82725 287.33859 756.45988 287.54715 756.21094 287.70898 L 756.66602 289.13086 L 756.74023 289.10742 C 757.16251 288.76971 757.58472 288.48109 758.00586 288.24219 C 758.42541 287.99833 758.81852 287.81686 759.18555 287.69922 C 759.48809 287.60225 759.78571 287.52981 760.07617 287.48047 C 760.36664 287.43112 760.62833 287.43193 760.86328 287.48242 C 761.10975 287.53469 761.32021 287.64697 761.49609 287.82031 C 761.67694 287.99206 761.81818 288.23726 761.91992 288.55469 L 761.99023 288.76953 C 761.18955 289.06992 760.44749 289.373 759.76367 289.67969 C 759.07986 289.98637 758.5203 290.33341 758.08594 290.71875 C 757.65654 291.1025 757.3679 291.53441 757.2207 292.01367 C 757.07687 292.48638 757.1067 293.03612 757.30859 293.66602 C 757.555 294.43478 758.01752 294.98539 758.69727 295.31445 C 759.37701 295.64351 760.09092 295.68731 760.83984 295.44727 C 761.24655 295.31691 761.58812 295.16266 761.86523 294.98633 C 762.14394 294.81496 762.3816 294.63606 762.57812 294.44727 C 762.7479 294.2944 762.9136 294.11009 763.07422 293.89453 C 763.23821 293.67242 763.36983 293.49906 763.4668 293.375 L 763.75 294.25977 L 765.14062 293.81445 L 763.33398 288.17578 C 763.1623 287.64012 762.93597 287.21585 762.65625 286.90625 C 762.37653 286.59665 762.0438 286.378 761.6582 286.25 C 761.46213 286.18432 761.25767 286.14057 761.04297 286.11914 C 760.93562 286.10843 760.82681 286.10467 760.71484 286.10547 z M 826.92188 286.36523 C 827.26071 286.36787 827.61764 286.43918 827.99023 286.58008 C 828.73049 286.86 829.20496 287.26677 829.41406 287.80273 C 829.6281 288.34057 829.59938 288.97674 829.32812 289.70898 L 824.58984 287.91797 C 824.89539 287.28894 825.35173 286.83758 825.95703 286.56445 C 826.26215 286.42882 826.58302 286.3626 826.92188 286.36523 z M 834.00781 287.80664 L 830.88086 296.07422 L 832.27148 296.60156 L 834.49219 290.73047 C 834.97615 290.56939 835.45318 290.46997 835.92383 290.43359 C 836.39634 290.39229 836.848 290.45288 837.27734 290.61523 C 837.54383 290.71601 837.76804 290.81661 837.95117 290.91406 C 838.14111 291.00845 838.33092 291.11837 838.51953 291.24609 L 838.59375 291.27344 L 839.13281 289.8457 C 838.92873 289.72905 838.77476 289.64468 838.66992 289.59375 C 838.56695 289.53789 838.39416 289.46449 838.15234 289.37305 C 837.71313 289.20696 837.24728 289.13702 836.75195 289.16406 C 836.26343 289.18804 835.65818 289.31759 834.9375 289.55273 L 835.39844 288.33203 L 834.00781 287.80664 z M 762.35156 289.90039 L 763.09375 292.21484 C 762.83241 292.59395 762.53025 292.94574 762.18555 293.26953 C 761.83925 293.58836 761.42071 293.82504 760.92969 293.98242 C 760.33947 294.1716 759.86202 294.1947 759.49805 294.04883 C 759.13248 293.898 758.87331 293.58356 758.7207 293.10742 C 758.58558 292.68584 758.60371 292.3156 758.77539 291.99805 C 758.94548 291.67553 759.21297 291.39323 759.57812 291.15039 C 759.88519 290.94805 760.31947 290.7301 760.87891 290.49609 C 761.4433 290.2605 761.93297 290.0619 762.35156 289.90039 z M 840.40625 290.37891 L 840.61328 299.49609 L 837.73438 302.32812 L 839.21484 302.91016 L 848.4375 293.52734 L 846.98438 292.95898 L 842.04297 298.06055 L 841.9082 290.96875 L 840.40625 290.37891 z "
         transform="scale(0.26458333)" />
    </g>
    <text
       xml:space="preserve"
       style="font-style:normal;font-variant:normal;font-weight:bold;font-stretch:normal;font-size:3.52778px;line-height:1.25;font-family:sans-serif;-inkscape-font-specification:'sans-serif Bold';stroke-width:0.264583;fill:#000080"
       x="91.880699"
       y="122.36979"
       id="text15184"><tspan
         sodipodi:role="line"
         id="tspan15182"
         style="font-style:normal;font-variant:normal;font-weight:bold;font-stretch:normal;font-size:3.52778px;font-family:sans-serif;-inkscape-font-specification:'sans-serif Bold';stroke-width:0.264583;fill:#000080"
         x="91.880699"
         y="122.36979">A</tspan></text>
    <text
       xml:space="preserve"
       style="font-style:normal;font-variant:normal;font-weight:bold;font-stretch:normal;font-size:3.52777778px;line-height:1.25;font-family:sans-serif;-inkscape-font-specification:'sans-serif Bold';stroke-width:0.264583;fill:#000080"
       x="91.984047"
       y="138.49284"
       id="text18037"><tspan
         sodipodi:role="line"
         id="tspan18035"
         style="font-style:normal;font-variant:normal;font-weight:bold;font-stretch:normal;font-family:sans-serif;-inkscape-font-specification:'sans-serif Bold';stroke-width:0.264583;font-size:3.52777778px;fill:#000080"
         x="91.984047"
         y="138.49284">C</tspan></text>
    <text
       xml:space="preserve"
       style="font-style:normal;font-variant:normal;font-weight:bold;font-stretch:normal;font-size:3.52778px;line-height:1.25;font-family:sans-serif;-inkscape-font-specification:'sans-serif Bold';stroke-width:0.264583;fill:#000080"
       x="170.84229"
       y="120.30273"
       id="text18827"><tspan
         sodipodi:role="line"
         id="tspan18825"
         style="font-style:normal;font-variant:normal;font-weight:bold;font-stretch:normal;font-size:3.52778px;font-family:sans-serif;-inkscape-font-specification:'sans-serif Bold';stroke-width:0.264583;fill:#000080"
         x="170.84229"
         y="120.30273">B</tspan></text>
  </g>
</svg>
